<svg width="60" height="60" fill="none" xmlns="http://www.w3.org/2000/svg"><path fill-rule="evenodd" clip-rule="evenodd" d="M29.672 10c-8.785 0-15.132 6.766-16.139 14.033-.628 4.844.888 9.566 4.038 13.138 2.77 3.059 4.286 7.145 4.286 11.354l-.011 6.63c0 2.68 2.143 4.845 4.795 4.845h6.181c2.652 0 4.796-2.165 4.796-4.845l.012-6.63c0-4.331 1.385-8.295 4.037-11.097a16.034 16.034 0 004.417-11.096C46.072 17.267 38.624 10 29.672 10zm5.542 45.155c0 1.273-1.006 2.3-2.274 2.3h-6.18c-1.267 0-2.274-1.015-2.274-2.3V52.22h10.716v2.936h.012zm4.689-19.513c-3.15 3.315-4.796 7.903-4.796 12.883v1.15H24.391v-1.15c0-4.723-1.894-9.432-5.044-13.005-2.77-3.058-3.908-7.01-3.41-11.096.888-6.117 6.394-11.867 13.747-11.867 7.696 0 13.878 6.252 13.878 13.775 0 3.438-1.267 6.754-3.659 9.31z" fill="url(#paint0_linear)"/><path fill-rule="evenodd" clip-rule="evenodd" d="M28.253 6h2.972V0h-2.972v6z" fill="url(#paint1_linear)"/><path fill-rule="evenodd" clip-rule="evenodd" d="M45.093 12.212L46.816 14l4.22-4.212L49.303 8l-4.209 4.212z" fill="url(#paint2_linear)"/><mask id="a" maskUnits="userSpaceOnUse" x="0" y="27" width="60" height="3"><path fill-rule="evenodd" clip-rule="evenodd" d="M.525 27.028h59.427v2.95H.525v-2.95z" fill="#fff"/></mask><g mask="url(#a)" fill-rule="evenodd" clip-rule="evenodd"><path d="M53.62 29.979h6.332v-2.95H53.62v2.95z" fill="url(#paint3_linear)"/><path d="M.525 29.979h6.323v-2.95H.525v2.95z" fill="url(#paint4_linear)"/></g><path fill-rule="evenodd" clip-rule="evenodd" d="M10.175 8L8.441 9.788 12.66 14l1.723-1.788L10.175 8z" fill="url(#paint5_linear)"/><defs><linearGradient id="paint0_linear" x1="13.973" y1="11.771" x2="13.973" y2="60" gradientUnits="userSpaceOnUse"><stop stop-color="#FF955D"/><stop offset="1" stop-color="#FF4CAB"/></linearGradient><linearGradient id="paint1_linear" x1="28.305" y1=".213" x2="28.305" y2="6" gradientUnits="userSpaceOnUse"><stop stop-color="#FF955D"/><stop offset="1" stop-color="#FF4CAB"/></linearGradient><linearGradient id="paint2_linear" x1="45.198" y1="8.213" x2="45.198" y2="14" gradientUnits="userSpaceOnUse"><stop stop-color="#FF955D"/><stop offset="1" stop-color="#FF4CAB"/></linearGradient><linearGradient id="paint3_linear" x1="53.732" y1="27.133" x2="53.732" y2="29.979" gradientUnits="userSpaceOnUse"><stop stop-color="#FF955D"/><stop offset="1" stop-color="#FF4CAB"/></linearGradient><linearGradient id="paint4_linear" x1=".637" y1="27.133" x2=".637" y2="29.979" gradientUnits="userSpaceOnUse"><stop stop-color="#FF955D"/><stop offset="1" stop-color="#FF4CAB"/></linearGradient><linearGradient id="paint5_linear" x1="8.546" y1="8.213" x2="8.546" y2="14" gradientUnits="userSpaceOnUse"><stop stop-color="#FF955D"/><stop offset="1" stop-color="#FF4CAB"/></linearGradient></defs></svg>