<svg width="107" height="19" fill="none" xmlns="http://www.w3.org/2000/svg"><path d="M19.748.648V18h-2.844V6.792c0-.448.024-.932.072-1.452l-5.244 9.852c-.248.472-.628.708-1.14.708h-.456c-.512 0-.892-.236-1.14-.708L3.692 5.304c.024.264.044.524.06.78s.024.492.024.708V18H.932V.648h2.436c.144 0 .268.004.372.012a.935.935 0 01.276.06.555.555 0 01.228.156c.072.072.14.168.204.288L9.644 10.8c.136.256.26.52.372.792.12.272.236.552.348.84.112-.296.228-.58.348-.852.12-.28.248-.548.384-.804l5.124-9.612c.064-.12.132-.216.204-.288a.684.684 0 01.228-.156c.088-.032.184-.052.288-.06.104-.008.228-.012.372-.012h2.436zm9.603 12.096c-.856.04-1.576.116-2.16.228-.584.104-1.052.24-1.404.408-.352.168-.604.364-.756.588a1.277 1.277 0 00-.228.732c0 .52.152.892.456 1.116.312.224.716.336 1.212.336.608 0 1.132-.108 1.572-.324.448-.224.884-.56 1.308-1.008v-2.076zm-6.792-5.34c1.416-1.296 3.12-1.944 5.112-1.944.72 0 1.364.12 1.932.36a3.98 3.98 0 011.44.984c.392.416.688.916.888 1.5.208.584.312 1.224.312 1.92V18h-1.344c-.28 0-.496-.04-.648-.12-.152-.088-.272-.26-.36-.516l-.264-.888c-.312.28-.616.528-.912.744a5.607 5.607 0 01-.924.528c-.32.144-.664.252-1.032.324-.36.08-.76.12-1.2.12-.52 0-1-.068-1.44-.204a3.237 3.237 0 01-1.14-.636 2.828 2.828 0 01-.744-1.044c-.176-.416-.264-.9-.264-1.452a2.837 2.837 0 01.66-1.812c.24-.28.548-.544.924-.792a5.992 5.992 0 011.38-.648 11.77 11.77 0 011.92-.444c.728-.12 1.56-.192 2.496-.216v-.72c0-.824-.176-1.432-.528-1.824-.352-.4-.86-.6-1.524-.6-.48 0-.88.056-1.2.168-.312.112-.588.24-.828.384l-.66.372a1.262 1.262 0 01-.648.168.878.878 0 01-.528-.156 1.433 1.433 0 01-.348-.384l-.528-.948zm15.271.42c.384-.736.84-1.312 1.368-1.728.528-.424 1.152-.636 1.872-.636.568 0 1.024.124 1.368.372l-.192 2.22a.588.588 0 01-.18.312.478.478 0 01-.3.084c-.12 0-.3-.02-.54-.06-.232-.04-.46-.06-.684-.06-.328 0-.62.048-.876.144a2.218 2.218 0 00-.696.42c-.2.176-.38.392-.54.648a6.88 6.88 0 00-.432.876V18h-2.964V5.688h1.74c.304 0 .516.056.636.168.12.104.2.296.24.576l.18 1.392zM46.951.168V10.38h.552c.2 0 .356-.024.468-.072.12-.056.24-.164.36-.324l3.06-3.78c.128-.168.268-.296.42-.384.16-.088.364-.132.612-.132h2.712l-3.828 4.572a3.18 3.18 0 01-.888.828c.168.12.316.26.444.42.136.16.264.332.384.516L55.351 18h-2.676c-.232 0-.432-.036-.6-.108a.965.965 0 01-.42-.42l-3.144-4.668c-.112-.184-.228-.304-.348-.36-.12-.056-.3-.084-.54-.084h-.672V18h-2.964V.168h2.964zm17.156 10.26c0-.384-.056-.744-.168-1.08a2.498 2.498 0 00-.48-.9 2.192 2.192 0 00-.828-.6c-.328-.152-.712-.228-1.152-.228-.856 0-1.532.244-2.028.732-.488.488-.8 1.18-.936 2.076h5.592zm-5.652 1.788c.048.632.16 1.18.336 1.644.176.456.408.836.696 1.14.288.296.628.52 1.02.672.4.144.84.216 1.32.216.48 0 .892-.056 1.236-.168a5.52 5.52 0 00.912-.372 15.1 15.1 0 00.684-.372c.2-.112.392-.168.576-.168.248 0 .432.092.552.276l.852 1.08a5.072 5.072 0 01-1.104.972 6.562 6.562 0 01-1.284.624c-.44.152-.892.26-1.356.324a9.58 9.58 0 01-1.332.096 6.66 6.66 0 01-2.388-.42 5.453 5.453 0 01-1.92-1.26c-.544-.56-.972-1.248-1.284-2.064-.312-.824-.468-1.776-.468-2.856 0-.84.136-1.628.408-2.364a5.672 5.672 0 011.164-1.932 5.546 5.546 0 011.86-1.308c.736-.32 1.564-.48 2.484-.48.776 0 1.492.124 2.148.372.656.248 1.22.612 1.692 1.092.472.472.84 1.056 1.104 1.752.272.688.408 1.476.408 2.364 0 .448-.048.752-.144.912-.096.152-.28.228-.552.228h-7.62zM81.298 18h-2.964V7.908h-5.712v6.672c0 .384.092.684.276.9.192.216.452.324.78.324.184 0 .336-.02.456-.06.128-.048.236-.096.324-.144.096-.048.18-.092.252-.132a.387.387 0 01.216-.072.32.32 0 01.216.072.85.85 0 01.18.192l.888 1.44c-.432.36-.928.632-1.488.816-.56.184-1.14.276-1.74.276-1.072 0-1.896-.3-2.472-.9-.568-.608-.852-1.444-.852-2.508V7.908h-1.26a.578.578 0 01-.408-.156c-.112-.104-.168-.26-.168-.468V6.108l1.98-.336.624-3.348a.658.658 0 01.228-.372.678.678 0 01.432-.132h1.536v3.876h8.676V18zm.516-15.948c0 .256-.052.5-.156.732-.104.224-.244.42-.42.588a1.951 1.951 0 01-.612.408c-.232.096-.48.144-.744.144-.256 0-.496-.048-.72-.144a2.036 2.036 0 01-.588-.408 2.036 2.036 0 01-.408-.588 1.896 1.896 0 01-.144-.732c0-.264.048-.508.144-.732a1.99 1.99 0 01.408-.6c.168-.176.364-.312.588-.408a1.798 1.798 0 011.464 0c.24.096.444.232.612.408.176.168.316.368.42.6.104.224.156.468.156.732zM87.287.168V10.38h.552c.2 0 .356-.024.468-.072.12-.056.24-.164.36-.324l3.06-3.78c.128-.168.268-.296.42-.384.16-.088.364-.132.612-.132h2.712l-3.828 4.572a3.18 3.18 0 01-.888.828c.168.12.316.26.444.42.136.16.264.332.384.516L95.687 18h-2.676c-.232 0-.432-.036-.6-.108a.965.965 0 01-.42-.42l-3.144-4.668c-.112-.184-.228-.304-.348-.36-.12-.056-.3-.084-.54-.084h-.672V18h-2.964V.168h2.964zm16.361 12.576c-.856.04-1.576.116-2.16.228-.584.104-1.052.24-1.404.408-.352.168-.604.364-.756.588a1.277 1.277 0 00-.228.732c0 .52.152.892.456 1.116.312.224.716.336 1.212.336.608 0 1.132-.108 1.572-.324.448-.224.884-.56 1.308-1.008v-2.076zm-6.792-5.34c1.416-1.296 3.12-1.944 5.112-1.944.72 0 1.364.12 1.932.36a3.98 3.98 0 011.44.984c.392.416.688.916.888 1.5.208.584.312 1.224.312 1.92V18h-1.344c-.28 0-.496-.04-.648-.12-.152-.088-.272-.26-.36-.516l-.264-.888c-.312.28-.616.528-.912.744a5.607 5.607 0 01-.924.528c-.32.144-.664.252-1.032.324-.36.08-.76.12-1.2.12-.52 0-1-.068-1.44-.204a3.237 3.237 0 01-1.14-.636 2.828 2.828 0 01-.744-1.044c-.176-.416-.264-.9-.264-1.452a2.837 2.837 0 01.66-1.812c.24-.28.548-.544.924-.792a5.992 5.992 0 011.38-.648 11.773 11.773 0 011.92-.444c.728-.12 1.56-.192 2.496-.216v-.72c0-.824-.176-1.432-.528-1.824-.352-.4-.86-.6-1.524-.6-.48 0-.88.056-1.2.168-.312.112-.588.24-.828.384l-.66.372a1.262 1.262 0 01-.648.168.878.878 0 01-.528-.156 1.433 1.433 0 01-.348-.384l-.528-.948z" fill="#fff"/></svg>